<?xml version="1.0" encoding="UTF-8" standalone="no"?>
<svg
   xmlns:dc="http://purl.org/dc/elements/1.1/"
   xmlns:cc="http://creativecommons.org/ns#"
   xmlns:rdf="http://www.w3.org/1999/02/22-rdf-syntax-ns#"
   xmlns:svg="http://www.w3.org/2000/svg"
   xmlns="http://www.w3.org/2000/svg"
   xmlns:sodipodi="http://sodipodi.sourceforge.net/DTD/sodipodi-0.dtd"
   xmlns:inkscape="http://www.inkscape.org/namespaces/inkscape"
   height="512pt"
   viewBox="-31 0 512 512.00006"
   width="512pt"
   version="1.1"
   id="svg917"
   sodipodi:docname="meditation (4).svg"
   inkscape:version="0.92.4 (fd57863, 2020-04-02)">
  <metadata
     id="metadata923">
    <rdf:RDF>
      <cc:Work
         rdf:about="">
        <dc:format>image/svg+xml</dc:format>
        <dc:type
           rdf:resource="http://purl.org/dc/dcmitype/StillImage" />
      </cc:Work>
    </rdf:RDF>
  </metadata>
  <defs
     id="defs921" />
  <sodipodi:namedview
     pagecolor="#ffffff"
     bordercolor="#666666"
     borderopacity="1"
     objecttolerance="10"
     gridtolerance="10"
     guidetolerance="10"
     inkscape:pageopacity="0"
     inkscape:pageshadow="2"
     inkscape:window-width="1853"
     inkscape:window-height="1019"
     id="namedview919"
     showgrid="false"
     inkscape:zoom="0.4334827"
     inkscape:cx="128.27571"
     inkscape:cy="297.19435"
     inkscape:window-x="67"
     inkscape:window-y="27"
     inkscape:window-maximized="1"
     inkscape:current-layer="svg917" />
  <path
     d="m134.984375 149.984375c6.035156 0 11.761719.96875 17.308594 2.308594-1.339844-5.546875-2.308594-11.273438-2.308594-17.308594 0-.472656.128906-.898437.136719-1.367187-8.183594-4.007813-16.867188-6.628907-24.132813-7.613282.984375 7.253906 3.609375 15.925782 7.625 24.117188.46875-.007813.898438-.136719 1.371094-.136719zm0 0"
     id="path905"
     style="fill:#233254;fill-opacity:1" />
  <path
     d="m179.984375 134.984375c0 14.664063 8.042969 28.402344 15.015625 37.546875 6.960938-9.128906 14.988281-22.839844 14.988281-37.546875 0-14.664063-8.042969-28.40625-15.015625-37.546875-6.960937 9.128906-14.988281 22.835938-14.988281 37.546875zm0 0"
     id="path907"
     style="fill:#233254;fill-opacity:1" />
  <path
     d="m254.988281 149.984375c.46875 0 .898438.128906 1.363281.136719 4.015626-8.1875 6.632813-16.867188 7.617188-24.132813-7.253906.984375-15.929688 3.609375-24.117188 7.625.007813.46875.136719.902344.136719 1.371094 0 6.039063-.96875 11.765625-2.308593 17.308594 5.546874-1.339844 11.273437-2.308594 17.308593-2.308594zm0 0"
     id="path909"
     style="fill:#233254;fill-opacity:1" />
  <path
     d="m97.4375 195c9.128906 6.957031 22.839844 14.984375 37.546875 14.984375 14.664063 0 28.402344-8.039063 37.546875-15.015625-9.128906-6.957031-22.839844-14.984375-37.546875-14.984375-14.664063 0-28.40625 8.042969-37.546875 15.015625zm0 0"
     id="path911"
     style="fill:#233254;fill-opacity:1" />
  <path
     d="m217.445312 195c9.125 6.957031 22.835938 14.984375 37.542969 14.984375 14.664063 0 28.40625-8.039063 37.546875-15.015625-9.125-6.957031-22.839844-14.984375-37.546875-14.984375-14.664062 0-28.40625 8.042969-37.542969 15.015625zm0 0"
     id="path913"
     style="fill:#233254;fill-opacity:1" />
  <path
     d="m171.429688 1.367188c-84.804688 9.964843-155.878907 78.214843-169.003907 162.300781-11.617187 74.445312 19.070313 147.5 80.085938 190.640625 4.746093 3.355468 7.46875 8.085937 7.46875 12.980468v129.710938c0 8.289062 6.710937 15 15.003906 15h180.007813c8.289062 0 15-6.710938 15-15v-59.292969l37.601562 6.269531c27.65625 4.515626 52.402344-16.722656 52.402344-44.398437v-39.582031h45c5.199218 0 10.019531-2.695313 12.761718-7.121094 2.738282-4.425781 2.988282-9.945312.65625-14.589844l-58.417968-116.839844v-11.457031c0-145.324219-110.304688-221.308593-218.566406-208.621093zm154.738281 203.625c-1.289063 1.433593-31.789063 34.996093-71.179688 34.996093-25.761719 0-47.53125-14.261719-60.003906-24.597656-12.46875 10.332031-34.238281 24.597656-60 24.597656-39.394531 0-69.890625-33.5625-71.179687-34.996093-5.101563-5.699219-5.101563-14.3125 0-20.011719.910156-1.015625 16.617187-17.992188 39.601562-27.902344-9.273438-23.3125-8.324219-46.558594-8.253906-47.773437.410156-7.648438 6.503906-13.742188 14.148437-14.152344 1.203125-.035156 24.464844-1.003906 47.773438 8.253906 9.914062-22.984375 26.886719-38.691406 27.90625-39.601562 5.683593-5.101563 14.324219-5.101563 20.007812 0 1.019531.910156 17.996094 16.621093 27.90625 39.605468 23.324219-9.261718 46.59375-8.292968 47.773438-8.257812 7.644531.410156 13.738281 6.503906 14.148437 14.152344.070313 1.214843 1.019532 24.460937-8.253906 47.773437 22.980469 9.910156 38.691406 26.886719 39.601562 27.902344 5.101563 5.699219 5.101563 14.3125.003907 20.011719zm0 0"
     id="path915"
     style="fill:#233254;fill-opacity:1" />
</svg>
