<?xml version="1.0" encoding="UTF-8"?>
<svg width="131px" height="50px" viewBox="0 0 131 50" version="1.1" xmlns="http://www.w3.org/2000/svg" xmlns:xlink="http://www.w3.org/1999/xlink">
    <!-- Generator: Sketch 51.3 (57544) - http://www.bohemiancoding.com/sketch -->
    <title>Group 45</title>
    <desc>Created with Sketch.</desc>
    <defs></defs>
    <g id="Headers" stroke="none" stroke-width="1" fill="none" fill-rule="evenodd">
        <g id="Header-•-Desktop-V1-+-notification-bar" transform="translate(-120.000000, -45.000000)" fill="#FFFFFF">
            <g id="Group-8" transform="translate(0.000000, 30.000000)">
                <g id="Group-7">
                    <g id="Group-5">
                        <g id="Group-45" transform="translate(120.000000, 15.000000)">
                            <polygon id="Fill-1" points="64.1987154 23.9051382 65.1882559 23.9051382 65.1882559 21.0422334 65.3483858 21.0422334 65.3483858 21.0406787 68.6986762 21.0406787 68.6986762 20.1242072 65.1882559 20.1242072 65.1882559 17.7385828 69.146418 17.7385828 69.146418 16.8221112 64.1987154 16.8221112 64.1987154 20.1265392 63.5333213 20.1265392 63.5333213 21.0422334 64.1987154 21.0422334"></polygon>
                            <path d="M80.9303455,21.2076491 L82.3046641,18.0198206 L83.6805374,21.2076491 L80.9303455,21.2076491 Z M81.8359344,16.8219558 L78.6791991,23.9469585 L79.7425859,23.9469585 L80.5346847,22.1241207 L84.0754208,22.1241207 L84.8667423,23.9469585 L85.9301292,23.9469585 L82.7733938,16.8219558 L81.8359344,16.8219558 Z" id="Fill-2"></path>
                            <polygon id="Fill-3" points="93.8283416 23.9051382 93.8283416 16.8221112 92.8279185 16.8221112 92.8279185 22.1553693 88.4733183 16.8221112 87.6921021 16.8221112 87.6921021 23.9051382 88.6824199 23.9051382 88.6824199 18.6550543 93.0160322 23.9051382"></polygon>
                            <polygon id="Fill-4" points="112.931215 23.9042054 113.919979 23.9042054 113.919979 16.8211784 112.931215 16.8211784"></polygon>
                            <path d="M130.201924,17.7214038 L130.201924,16.8220335 L126.007453,16.8220335 L125.127516,16.8220335 L125.127516,19.9134731 L124.653345,19.9134731 L124.653345,20.8136208 L125.127516,20.8136208 L125.127516,21.9718418 C125.127516,23.0375606 125.995793,23.9050604 127.060735,23.9050604 L130.201924,23.9050604 L130.201924,23.0251234 L127.060735,23.0251234 C126.48007,23.0251234 126.007453,22.552507 126.007453,21.9718418 L126.007453,20.8136208 L129.508546,20.8128434 L129.508546,19.9134731 L126.007453,19.9134731 L126.007453,17.7214038 L130.201924,17.7214038 Z" id="Fill-5"></path>
                            <path d="M120.249929,20.0017778 L119.261166,19.8035587 C118.427091,19.6480928 117.959139,19.3146185 117.959139,18.7199613 C117.959139,18.2255797 118.256078,17.8602349 118.743464,17.6736758 C118.950234,17.6021614 119.198979,17.560963 119.487368,17.5555217 L119.544114,17.5555217 C119.662268,17.5555217 119.78664,17.5617403 119.917232,17.5741776 C120.455144,17.6254813 121.066125,17.7778379 121.700426,18.0195874 L122.047115,17.1917314 C121.542628,16.9981764 120.892003,16.7937387 120.218058,16.7059005 C120.000406,16.6771393 119.78664,16.66237 119.584535,16.66237 C119.377765,16.66237 119.178769,16.6771393 118.972776,16.7097871 L118.971222,16.7136738 C117.712725,16.8839089 116.905857,17.6791171 116.905857,18.7930303 C116.905857,19.8035587 117.551818,20.4806128 118.885715,20.7309129 L120.08358,20.9602251 C120.947971,21.1164684 121.270562,21.5222344 121.270562,22.011952 C121.270562,22.5607467 120.898999,22.9564074 120.267807,23.1079867 L120.269362,23.1048774 C120.215726,23.1212013 120.155095,23.1297519 120.096795,23.1414119 C119.95843,23.1631771 119.813847,23.1787237 119.656049,23.1787237 L119.656049,23.1872743 C119.650608,23.1872743 119.645944,23.1880516 119.640502,23.1880516 C119.520794,23.1880516 119.397976,23.1810557 119.272048,23.1686184 L119.222299,23.1623998 C118.531253,23.0831122 117.841762,22.835144 117.350489,22.5965038 L116.911298,23.3396309 C116.950165,23.3590641 116.992918,23.3792747 117.036448,23.4002626 C117.32717,23.5378499 117.785794,23.731405 118.314378,23.8721017 C118.774557,23.9956971 119.208307,24.0578834 119.605523,24.0578834 L119.603968,24.0641021 C121.218481,24.0641021 122.291196,23.1997116 122.291196,21.886802 C122.291196,20.8140872 121.552733,20.2520779 120.249929,20.0017778" id="Fill-7"></path>
                            <path d="M105.824558,20.9647336 L107.184107,18.0194319 L108.533551,20.9647336 L105.824558,20.9647336 Z M106.715377,16.8215671 L103.424164,23.9053714 L104.486774,23.9053714 L105.428897,21.8812052 L108.929212,21.8812052 L109.894655,23.9053714 L110.957265,23.9053714 L107.652837,16.8215671 L106.715377,16.8215671 Z" id="Fill-9"></path>
                            <path d="M102.114053,22.9107005 L101.423007,22.2056625 C100.991589,22.7832184 100.321531,23.1205794 99.4742417,23.1205794 C97.9522304,23.1205794 96.786236,21.9747957 96.786236,20.3921527 C96.786236,18.807955 97.9522304,17.6621713 99.4742417,17.6621713 C100.214259,17.6621713 100.821354,17.9194674 101.251217,18.3679865 L101.994344,17.7430136 C101.377922,17.0916114 100.502649,16.7037239 99.4742417,16.7037239 C97.4321969,16.7037239 95.7865902,18.2871442 95.7865902,20.3921527 C95.7865902,22.3230393 97.1741235,23.8116254 98.9806374,24.044047 L98.6184018,25.1898307 L99.4516991,25.1898307 L99.9196515,24.0525976 C100.819799,23.9499901 101.580027,23.5403374 102.114053,22.9107005" id="Fill-11"></path>
                            <path d="M72.59986,20.188881 L72.59986,17.7465115 L74.3978233,17.7465115 C75.35938,17.7511755 76.0053408,18.259549 76.0053408,19.0158907 C76.0053408,19.7815603 75.3539387,20.188881 74.3838314,20.188881 L72.59986,20.188881 Z M77.1651165,23.9045163 L75.2497765,20.9677652 C75.3018576,20.9584373 75.3531613,20.948332 75.3959145,20.9397814 C76.390119,20.6350682 76.9847761,20.0038766 76.9847761,19.0158907 C76.9847761,17.7045357 75.9517051,16.8238214 74.4125926,16.8238214 L71.6110968,16.83004 L71.6110968,20.1904357 L71.6110968,21.0765914 L71.6110968,23.9052936 L72.59986,23.9052936 L72.59986,21.3245595 L72.59986,21.0773687 L74.1102114,21.0773687 L75.9470411,23.9045163 L77.1651165,23.9045163 Z" id="Fill-13"></path>
                            <polygon id="Fill-15" points="64.2526621 13.0642669 65.155919 13.0642669 65.155919 10.2845364 68.0957794 10.2845364 68.0957794 9.44812984 65.155919 9.44812984 65.155919 7.43640095 68.7681695 7.43640095 68.7681695 6.59999434 64.2526621 6.59999434 64.2526621 9.44812984 63.5351869 9.44812984 63.5351869 10.2845364 64.2526621 10.2845364"></polygon>
                            <path d="M78.7820398,7.43655641 L80.2177674,7.43655641 C81.6527178,7.43655641 82.707554,8.44397552 82.707554,9.79419696 C82.707554,11.2011635 81.6527178,12.2272385 80.2177674,12.2272385 L78.7820398,12.2272385 L78.7820398,7.43655641 Z M83.6395722,9.79419696 C83.6395722,7.94026597 82.2046218,6.60014981 80.2177674,6.60014981 L77.8787828,6.60014981 L77.8787828,13.0644224 L80.2177674,13.0644224 C82.2046218,13.0644224 83.6395722,11.6955451 83.6395722,9.79419696 Z" id="Fill-17"></path>
                            <path d="M102.845054,7.65521922 L104.077121,10.2841478 L101.604436,10.2841478 L102.845054,7.65521922 Z M101.242977,11.1205544 L104.438579,11.1205544 L105.320071,13.0638783 L106.289401,13.0638783 L103.274139,6.60038301 L102.417522,6.60038301 L99.4139209,13.0638783 L100.384028,13.0638783 L101.242977,11.1205544 Z" id="Fill-19"></path>
                            <polygon id="Fill-21" points="108.792713 13.0642669 109.69597 13.0642669 109.69597 7.43640095 112.024849 7.43640095 112.024849 6.59999434 106.463834 6.59999434 106.463834 7.43640095 108.792713 7.43640095"></polygon>
                            <polygon id="Fill-23" points="113.747412 13.0643447 114.650668 13.0643447 114.650668 6.60007208 113.747412 6.60007208"></polygon>
                            <path d="M119.657837,7.31358288 C121.036042,7.31358288 122.101761,8.45392534 122.101761,9.83213065 C122.101761,11.2111133 121.036042,12.3514557 119.657837,12.3514557 C118.269526,12.3514557 117.205362,11.2111133 117.205362,9.83213065 C117.205362,8.45392534 118.269526,7.31358288 119.657837,7.31358288 M119.657837,13.1971903 C121.521096,13.1971903 123.022896,11.6953896 123.022896,9.83213065 C123.022896,7.96964902 121.521096,6.46707099 119.657837,6.46707099 C117.795355,6.46707099 116.292,7.96964902 116.292,9.83213065 C116.292,11.6953896 117.795355,13.1971903 119.657837,13.1971903" id="Fill-25"></path>
                            <polygon id="Fill-26" points="125.504521 8.27350715 129.459574 13.0641892 130.200369 13.0641892 130.200369 6.60069394 129.287784 6.60069394 129.287784 11.4675543 125.314075 6.60069394 124.601264 6.60069394 124.601264 13.0641892 125.504521 13.0641892"></polygon>
                            <polygon id="Fill-27" points="74.4224647 4.86017533 73.4531347 4.86017533 72.918332 5.86837176 73.7174268 5.86837176"></polygon>
                            <path d="M70.9555748,11.2556543 C70.9555748,12.2467495 71.7624429,13.0637228 72.7543154,13.0637228 L75.6755199,13.0637228 L75.6755199,12.2451948 L72.7543154,12.2451948 C72.2140714,12.2451948 71.7741029,11.7958983 71.7741029,11.2556543 L71.7741029,10.2839923 L72.1720956,10.2839923 L75.0303364,10.2839923 L75.0303364,9.44758571 L71.9870912,9.44758571 L71.7741029,9.44758571 L71.7741029,7.43663415 L75.6755199,7.43663415 L75.6755199,6.60022754 L70.9555748,6.59945021 L70.9555748,9.44758571 L70.3251606,9.44758571 L70.3251606,10.2839923 L70.9555748,10.2839923 L70.9555748,11.2556543 Z" id="Fill-28"></path>
                            <polygon id="Fill-29" points="89.2433409 4.86017533 88.274011 4.86017533 87.7399856 5.86837176 88.538303 5.86837176"></polygon>
                            <path d="M90.4966294,12.2451948 L87.5738703,12.2451948 C87.0351809,12.2451948 86.5952123,11.7958983 86.5952123,11.2556543 L86.5952123,10.2839923 L86.9924277,10.2839923 L89.8530005,10.2839923 L89.8530005,9.44680838 L86.8082006,9.44680838 L86.8082006,9.44758571 L86.5952123,9.44758571 L86.5952123,7.43663415 L90.4966294,7.43663415 L90.4966294,6.60022754 L86.5952123,6.60022754 L85.7774616,6.59945021 L85.7774616,9.44758571 L85.0700917,9.44758571 L85.0700917,10.2839923 L85.7774616,10.2839923 L85.7774616,11.2556543 C85.7774616,12.2467495 86.5835524,13.0637228 87.5738703,13.0637228 L90.4966294,13.0637228 L90.4966294,12.2451948 Z" id="Fill-30"></path>
                            <path d="M93.8557036,7.43655641 L95.4943143,7.43655641 C96.3726967,7.44044306 96.9463659,7.90450881 96.9463659,8.59477745 C96.9463659,9.29437406 96.3517088,9.79341963 95.4671078,9.79341963 L93.8393797,9.79341963 L93.8557036,7.43655641 Z M93.8393797,10.8303773 L93.8393797,10.6041744 L95.217585,10.6041744 L96.8927302,13.0558718 L98.0050888,13.0558718 L96.2576519,10.5038988 C96.3042917,10.4961256 96.3517088,10.4867976 96.3905753,10.478247 C97.2984962,10.199963 97.8402949,9.49647974 97.8402949,8.59477745 C97.8402949,7.39846727 96.9137181,6.5947085 95.5098609,6.5947085 L95.2409049,6.60014981 L92.9524467,6.60014981 L92.9353454,9.79419696 L92.9353454,10.603397 L92.9353454,13.0644224 L93.8393797,13.0644224 L93.8393797,10.8303773 Z" id="Fill-31"></path>
                            <polygon id="Fill-32" points="73.5859026 28.5929795 70.5939611 28.5929795 67.7761415 32.6755144 66.2105997 32.6755144 66.2105997 28.5929795 63.6835014 28.5929795 63.6835014 38.7635595 66.2105997 38.7635595 66.2105997 34.7657535 67.5437199 34.7657535 70.8333786 38.7635595 73.9154903 38.7635595 69.7482266 33.6642776"></polygon>
                            <polygon id="Fill-33" points="110.821077 30.8513551 114.066428 30.8513551 114.066428 38.7637927 116.579534 38.7637927 116.579534 30.8513551 119.824885 30.8513551 119.824885 28.5932127 110.821077 28.5932127"></polygon>
                            <path d="M79.6640756,34.7861973 L81.085034,31.4794374 L82.5596282,34.7861973 L79.6640756,34.7861973 Z M79.8887238,28.5932127 L75.4307388,38.7630153 L78.1234084,38.7630153 L78.8533209,36.8818778 L83.3571683,36.8818778 L84.1034047,38.7630153 L86.7968516,38.7630153 L82.3116601,28.5932127 L79.8887238,28.5932127 Z" id="Fill-34"></path>
                            <path d="M103.472825,34.7861973 L104.893006,31.4794374 L106.3676,34.7861973 L103.472825,34.7861973 Z M103.696696,28.5932127 L99.2387108,38.7630153 L101.93138,38.7630153 L102.66207,36.8818778 L107.165918,36.8818778 L107.912154,38.7630153 L110.604824,38.7630153 L106.119632,28.5932127 L103.696696,28.5932127 Z" id="Fill-35"></path>
                            <path d="M92.9546232,33.3367109 L91.0229592,33.3367109 L91.0276232,30.6891264 L92.9600645,30.6891264 C93.9060746,30.6891264 94.5644727,31.2200425 94.5644727,31.9515096 C94.5644727,32.697746 93.9006333,33.3367109 92.9546232,33.3367109 M95.3589035,34.8237423 C96.4075211,34.2112066 96.9866316,33.1913503 96.9866316,31.9515096 C96.9866316,29.8970276 95.4218672,28.5934459 93.001263,28.5934459 L88.4989702,28.5934459 L88.4989702,38.7632485 L91.0268459,38.7632485 L91.0268459,35.4028528 L92.4548003,35.4028528 L94.6834041,38.7624712 L97.6294831,38.7624712 L95.0720689,34.964439 C95.2477454,34.8859287 95.3565715,34.825297 95.3589035,34.8237423" id="Fill-36"></path>
                            <polygon id="Fill-37" points="124.379492 27.7674555 126.569229 27.7674555 127.61707 25.8497835 125.136611 25.8497835"></polygon>
                            <path d="M126.246949,36.5131904 C125.441635,36.5131904 124.787124,35.8579016 124.787124,35.0533655 L124.787124,34.6095103 L129.142501,34.6095103 L129.142501,32.4850686 L124.787124,32.4850686 L124.787124,30.7897129 L130.142147,30.7897129 L130.142147,28.5929795 L122.336981,28.5929795 L122.336981,30.7897129 L122.343977,30.7897129 L122.343977,32.4850686 L121.554987,32.4850686 L121.554987,34.6095103 L122.343977,34.6095103 L122.343977,34.8598104 C122.343977,37.012236 124.093746,38.7635595 126.246949,38.7635595 L130.201224,38.7635595 L130.201224,36.5131904 L126.246949,36.5131904 Z" id="Fill-38"></path>
                            <path d="M26.0738876,30.855164 C29.6612635,32.7479615 31.2198093,33.659769 33.5121542,35.1848896 C33.5758952,35.2276428 33.6683974,35.2120962 33.7134825,35.1499098 C43.9275929,21.0887954 50.9919639,15.5479903 55.3403455,13.433654 C55.4211878,13.3947875 55.4460623,13.2960666 55.3947585,13.2229976 C53.2019119,10.0965782 50.296254,7.36815141 46.864344,5.20328859 C45.4977986,4.34123011 43.7285965,4.36843665 42.4234602,5.31988803 C41.8746655,5.71943542 41.3600734,6.18661048 40.8983396,6.73462782 C40.8983396,6.73462782 22.4624145,28.9507066 26.0738876,30.855164" id="Fill-39"></path>
                            <path d="M16.4233412,26.9852288 C15.5993718,26.6486451 15.0987716,25.8169025 15.1679539,24.9299694 C15.7214126,17.8251773 26.7252898,2.15732272 26.9491607,1.89536266 C28.1757867,0.458080308 30.0817988,-0.203427145 31.9536084,0.0546462679 C32.5498202,0.137043201 33.141368,0.232654737 33.7282518,0.343035534 C36.5857152,0.879392929 39.6748229,1.84483624 42.198812,2.97662808 C42.2135812,2.98362404 42.2120266,3.00694393 42.1957027,3.01005325 C41.63758,3.11188342 40.8532545,2.92843364 39.3102553,4.69919038 C29.3752063,16.0995057 23.9136888,25.4686588 23.7590002,29.7983845 C23.7590002,29.8100444 23.7512269,29.8178177 23.737235,29.8123764 L16.4233412,26.9852288 Z" id="Fill-40"></path>
                            <path d="M25.6176729,0.135099877 C25.6262235,0.134322548 25.6293329,0.142873173 25.6215596,0.145205161 C23.122445,1.04768478 10.7574638,22.8735441 13.8916565,25.920676 C13.930523,25.9587651 13.8963205,26.0225061 13.8426848,26.0085142 C11.9980817,25.5164646 8.92918463,24.5673452 8.92918463,24.5673452 C6.74488857,23.927603 6.74333391,23.0235687 6.86226534,21.9827244 C7.45925444,16.8336934 10.2949527,8.25897109 13.5581821,3.78777147 C14.3627182,2.68474083 15.3887933,2.10329832 16.8727154,1.78925718 C25.2779799,0.0115044775 25.6176729,0.135099877 25.6176729,0.135099877" id="Fill-41"></path>
                            <path d="M5.5042706,23.6026015 C5.53380912,23.6678972 5.51126656,23.6787798 5.4700681,23.6694518 C4.40745859,23.4028278 3.29743198,23.0973373 2.33587532,22.8369319 C0.971661947,22.4677003 -0.066850342,21.0117621 0.00310931823,19.5993543 C0.181895117,15.9785532 1.25460991,12.8840042 2.63436987,8.63667552 C2.93675107,7.70621204 3.86799188,6.53088975 4.69973451,6.01785224 C6.75499386,4.75313705 9.28908822,3.98902209 11.6583887,3.09664776 C11.6980325,3.08110117 11.7221297,3.12385429 11.6980325,3.15650214 C7.20040369,9.8617469 3.81746546,22.5819678 5.5042706,23.6026015" id="Fill-42"></path>
                            <path d="M34.6245128,48.8024598 C35.6606931,48.0974219 44.3683388,42.0824457 51.5026695,38.7632485 C52.341408,37.2179174 53.0044702,26.5879357 49.8593948,23.8517356 C44.6481774,26.2249228 37.1026394,34.8797101 34.8833635,37.3290755 C34.5840916,37.6586632 34.1223579,37.7775946 33.7002679,37.6376753 L33.6924946,37.6353433 C33.6707294,37.6283474 33.6528508,37.6213514 33.6326402,37.6135781 C33.1289307,37.4083631 26.8947476,33.7673515 18.86882,32.8065721 C15.2285856,34.959775 13.0699415,39.0197673 13.0699415,39.0197673 C19.6570321,40.5495518 26.1632805,44.7230342 31.7033083,48.8024598 C32.8716346,49.4561939 33.4779517,49.5028337 34.6245128,48.8024598" id="Fill-43"></path>
                        </g>
                    </g>
                </g>
            </g>
        </g>
    </g>
</svg>