<?xml version="1.0" encoding="UTF-8" standalone="no"?>
<svg
   xmlns:dc="http://purl.org/dc/elements/1.1/"
   xmlns:cc="http://creativecommons.org/ns#"
   xmlns:rdf="http://www.w3.org/1999/02/22-rdf-syntax-ns#"
   xmlns:svg="http://www.w3.org/2000/svg"
   xmlns="http://www.w3.org/2000/svg"
   xmlns:sodipodi="http://sodipodi.sourceforge.net/DTD/sodipodi-0.dtd"
   xmlns:inkscape="http://www.inkscape.org/namespaces/inkscape"
   id="Capa_1"
   enable-background="new 0 0 512 512"
   height="512"
   viewBox="0 0 512 512"
   width="512"
   version="1.1"
   sodipodi:docname="friends.svg"
   inkscape:export-filename="/home/loic/Téléchargements/friends.png"
   inkscape:export-xdpi="22.325581"
   inkscape:export-ydpi="22.325581"
   inkscape:version="0.92.4 (fd57863, 2020-04-02)">
  <metadata
     id="metadata6674">
    <rdf:RDF>
      <cc:Work
         rdf:about="">
        <dc:format>image/svg+xml</dc:format>
        <dc:type
           rdf:resource="http://purl.org/dc/dcmitype/StillImage" />
      </cc:Work>
    </rdf:RDF>
  </metadata>
  <defs
     id="defs6672" />
  <sodipodi:namedview
     pagecolor="#ffffff"
     bordercolor="#666666"
     borderopacity="1"
     objecttolerance="10"
     gridtolerance="10"
     guidetolerance="10"
     inkscape:pageopacity="0"
     inkscape:pageshadow="2"
     inkscape:window-width="1853"
     inkscape:window-height="1019"
     id="namedview6670"
     showgrid="false"
     inkscape:zoom="0.4609375"
     inkscape:cx="18.440678"
     inkscape:cy="256"
     inkscape:window-x="67"
     inkscape:window-y="27"
     inkscape:window-maximized="1"
     inkscape:current-layer="Capa_1" />
  <g
     id="g6667"
     style="fill:#233254;fill-opacity:1">
    <path
       d="m126 211c-46.869 0-85-38.131-85-85s38.131-85 85-85 85 38.131 85 85-38.131 85-85 85z"
       id="path6643"
       style="fill:#233254;fill-opacity:1" />
    <path
       d="m386 211c-46.869 0-85-38.131-85-85s38.131-85 85-85 85 38.131 85 85-38.131 85-85 85z"
       id="path6645"
       style="fill:#233254;fill-opacity:1" />
    <g
       id="g6665"
       style="fill:#233254;fill-opacity:1">
      <g
         id="g6651"
         style="fill:#233254;fill-opacity:1">
        <path
           d="m407 283.5c0-19.453 7.716-37.127 20.23-50.162-12.807 4.938-26.704 7.662-41.23 7.662-34.78 0-66.002-15.522-87.107-40h-84.685c34.507 26.53 56.792 68.208 56.792 115v155h145.001v-80c0-8.284 6.716-15 15-15s15 6.716 15 15v80h39.999c8.284 0 15-6.716 15-15v-100h-21.5c-39.977 0-72.5-32.523-72.5-72.5z"
           id="path6647"
           style="fill:#233254;fill-opacity:1" />
        <path
           d="m501 355.835v-.022c-.085.007-.079.014 0 .022z"
           id="path6649"
           style="fill:#233254;fill-opacity:1" />
      </g>
      <path
         d="m497 326h-17.5c-23.435 0-42.5-19.065-42.5-42.5s19.065-42.5 42.5-42.5c17.92 0 32.5 14.58 32.5 32.5v37.5c0 8.284-6.716 15-15 15z"
         id="path6653"
         style="fill:#233254;fill-opacity:1" />
      <g
         id="g6663"
         style="fill:#233254;fill-opacity:1">
        <g
           id="g6659"
           style="fill:#233254;fill-opacity:1">
          <path
             d="m190.731 221.001c-18.451 12.612-40.744 19.999-64.731 19.999-14.525 0-28.421-2.722-41.227-7.659 12.512 13.034 20.227 30.707 20.227 50.159 0 39.977-32.523 72.5-72.5 72.5h-21.5v100c0 8.284 6.716 15 15 15h40.001v-80c0-8.284 6.716-15 15-15s15 6.716 15 15v80h144.999v-155c0-39.423-19.945-74.271-50.269-94.999z"
             id="path6655"
             style="fill:#233254;fill-opacity:1" />
          <path
             d="m11 355.813v.032c.115-.011.124-.022 0-.032z"
             id="path6657"
             style="fill:#233254;fill-opacity:1" />
        </g>
        <path
           d="m0 311v-37.5c0-17.92 14.58-32.5 32.5-32.5 23.435 0 42.5 19.065 42.5 42.5s-19.065 42.5-42.5 42.5h-17.5c-8.284 0-15-6.716-15-15z"
           id="path6661"
           style="fill:#233254;fill-opacity:1" />
      </g>
    </g>
  </g>
</svg>
