<?xml version="1.0" encoding="UTF-8" standalone="no"?>
<!-- Generator: Adobe Illustrator 19.0.0, SVG Export Plug-In . SVG Version: 6.00 Build 0)  -->

<svg
   xmlns:dc="http://purl.org/dc/elements/1.1/"
   xmlns:cc="http://creativecommons.org/ns#"
   xmlns:rdf="http://www.w3.org/1999/02/22-rdf-syntax-ns#"
   xmlns:svg="http://www.w3.org/2000/svg"
   xmlns="http://www.w3.org/2000/svg"
   xmlns:sodipodi="http://sodipodi.sourceforge.net/DTD/sodipodi-0.dtd"
   xmlns:inkscape="http://www.inkscape.org/namespaces/inkscape"
   version="1.1"
   id="Layer_1"
   x="0px"
   y="0px"
   viewBox="0 0 455 455"
   style="enable-background:new 0 0 455 455;"
   xml:space="preserve"
   sodipodi:docname="smiley.svg"
   inkscape:export-filename="/home/loic/Images/smiley1.png"
   inkscape:export-xdpi="21.098902"
   inkscape:export-ydpi="21.098902"
   inkscape:version="0.92.4 (fd57863, 2020-04-02)"><metadata
   id="metadata4655"><rdf:RDF><cc:Work
       rdf:about=""><dc:format>image/svg+xml</dc:format><dc:type
         rdf:resource="http://purl.org/dc/dcmitype/StillImage" /></cc:Work></rdf:RDF></metadata><defs
   id="defs4653" /><sodipodi:namedview
   pagecolor="#ffffff"
   bordercolor="#666666"
   borderopacity="1"
   objecttolerance="10"
   gridtolerance="10"
   guidetolerance="10"
   inkscape:pageopacity="0"
   inkscape:pageshadow="2"
   inkscape:window-width="1853"
   inkscape:window-height="1019"
   id="namedview4651"
   showgrid="false"
   inkscape:zoom="0.51868132"
   inkscape:cx="16.387712"
   inkscape:cy="-3.8559322"
   inkscape:window-x="67"
   inkscape:window-y="27"
   inkscape:window-maximized="1"
   inkscape:current-layer="Layer_1" />
<path
   d="M227.5,0C101.855,0,0,101.855,0,227.5S101.855,455,227.5,455S455,353.145,455,227.5S353.145,0,227.5,0z M303.514,146.486  c19.33,0,35,15.67,35,35s-15.67,35-35,35c-19.33,0-35-15.67-35-35S284.184,146.486,303.514,146.486z M151.486,146.486  c19.33,0,35,15.67,35,35s-15.67,35-35,35c-19.33,0-35-15.67-35-35S132.156,146.486,151.486,146.486z M227.5,370  c-59.42,0-113.171-37.504-133.752-93.325l28.148-10.378C138.15,310.381,180.589,340,227.5,340s89.35-29.619,105.604-73.703  l28.148,10.378C340.671,332.496,286.92,370,227.5,370z"
   id="path4618"
   style="fill:#233254;fill-opacity:1" />
<g
   id="g4620">
</g>
<g
   id="g4622">
</g>
<g
   id="g4624">
</g>
<g
   id="g4626">
</g>
<g
   id="g4628">
</g>
<g
   id="g4630">
</g>
<g
   id="g4632">
</g>
<g
   id="g4634">
</g>
<g
   id="g4636">
</g>
<g
   id="g4638">
</g>
<g
   id="g4640">
</g>
<g
   id="g4642">
</g>
<g
   id="g4644">
</g>
<g
   id="g4646">
</g>
<g
   id="g4648">
</g>
</svg>